<?xml version="1.0" standalone="no"?>
<!DOCTYPE svg PUBLIC "-//W3C//DTD SVG 20010904//EN"
 "http://www.w3.org/TR/2001/REC-SVG-20010904/DTD/svg10.dtd">
<svg version="1.0" xmlns="http://www.w3.org/2000/svg"
 width="720.000000pt" height="716.000000pt" viewBox="0 0 720.000000 716.000000"
 preserveAspectRatio="xMidYMid meet">

<g transform="translate(0.000000,716.000000) scale(0.100000,-0.100000)"
fill="#000000" stroke="none">
<path d="M3460 7077 c-3 -3 -66 -10 -140 -16 -131 -11 -278 -35 -410 -68 -107
-26 -314 -83 -335 -92 -11 -5 -47 -18 -80 -31 -206 -76 -371 -155 -555 -263
-109 -65 -133 -80 -220 -141 -296 -208 -580 -487 -796 -781 -16 -22 -33 -45
-39 -51 -12 -14 -70 -106 -143 -228 -194 -326 -349 -756 -411 -1138 -69 -427
-59 -852 30 -1258 139 -631 452 -1204 904 -1655 95 -95 162 -157 233 -215 24
-19 53 -43 65 -54 12 -10 42 -32 67 -49 25 -17 47 -34 50 -37 26 -35 424 -270
540 -319 30 -13 79 -35 108 -48 245 -112 571 -201 912 -250 179 -26 715 -25
875 1 273 44 496 98 680 164 118 42 287 112 344 143 20 11 38 19 42 19 8 0
234 126 299 168 75 47 283 193 295 206 6 6 24 22 40 35 158 122 477 450 552
569 10 15 20 29 23 32 43 41 229 339 298 475 103 207 205 470 249 640 16 66
75 352 93 455 28 166 28 678 -1 855 -74 453 -156 716 -336 1080 -81 164 -223
395 -309 503 -12 15 -45 56 -73 91 -129 163 -377 410 -508 508 -21 15 -40 30
-43 33 -12 13 -169 128 -208 153 -168 108 -448 258 -552 296 -19 8 -53 21 -75
31 -61 26 -238 86 -355 118 -161 46 -386 89 -533 103 -114 11 -569 24 -577 16z
m496 -77 c281 -20 645 -102 904 -205 206 -81 281 -116 435 -202 123 -69 299
-184 375 -245 19 -15 71 -56 115 -91 264 -210 530 -517 727 -837 128 -208 246
-469 323 -710 48 -153 111 -427 120 -528 3 -32 11 -82 17 -112 16 -78 16 -570
0 -695 -79 -624 -295 -1173 -636 -1618 -33 -43 -71 -93 -83 -110 -98 -134
-386 -410 -603 -575 -239 -184 -616 -378 -930 -481 -902 -294 -1860 -203
-2680 257 -124 69 -193 113 -198 125 -2 4 -8 7 -13 7 -10 0 -124 80 -219 153
-216 168 -468 430 -638 662 -25 35 -127 193 -167 260 -58 97 -185 349 -185
368 0 7 -4 17 -10 23 -13 13 -75 184 -129 355 -40 130 -84 344 -108 539 -21
164 -23 563 -5 720 22 181 78 479 101 535 5 11 18 54 30 95 61 205 187 492
304 692 213 362 532 716 881 979 327 246 768 453 1181 554 374 91 668 114
1091 85z"/>
<path d="M3410 6890 c-323 -22 -777 -131 -1025 -245 -16 -8 -70 -32 -120 -55
-265 -120 -540 -296 -770 -495 -91 -78 -293 -284 -368 -374 -255 -310 -448
-661 -577 -1051 -21 -63 -41 -133 -45 -155 -4 -22 -11 -47 -16 -56 -15 -29
-60 -308 -74 -459 -45 -467 21 -945 193 -1395 108 -283 278 -581 461 -810 30
-38 63 -79 71 -89 152 -193 455 -462 695 -617 39 -25 93 -60 120 -78 28 -18
136 -74 240 -126 376 -184 705 -279 1125 -325 416 -46 852 -8 1275 111 151 43
454 157 479 180 6 5 15 9 21 9 7 0 65 29 130 65 64 36 120 65 122 65 12 0 269
176 358 245 234 182 438 390 608 620 36 50 70 95 74 100 16 21 122 192 151
245 97 178 162 322 213 475 17 50 34 99 39 110 41 101 98 367 126 580 23 180
23 525 0 705 -22 167 -69 407 -96 492 -11 35 -25 79 -31 98 -67 223 -206 521
-341 730 -70 108 -68 105 -130 189 -494 667 -1241 1124 -2078 1272 -226 40
-584 57 -830 39z m630 -76 c135 -14 160 -18 340 -56 187 -39 494 -143 676
-229 226 -107 455 -249 644 -399 111 -89 393 -362 447 -433 17 -23 40 -51 50
-62 66 -72 220 -305 298 -450 64 -119 60 -112 90 -175 174 -362 271 -776 282
-1207 8 -313 -16 -544 -87 -823 -31 -122 -106 -355 -120 -375 -4 -5 -11 -21
-15 -35 -27 -91 -205 -428 -292 -553 -59 -86 -137 -191 -156 -212 -10 -11 -33
-39 -50 -62 -18 -23 -99 -109 -182 -191 -272 -269 -506 -439 -835 -603 -266
-133 -522 -221 -805 -279 -33 -6 -78 -16 -100 -20 -187 -40 -649 -56 -890 -30
-275 29 -565 97 -830 196 -130 49 -424 190 -492 236 -23 15 -45 28 -48 28 -14
0 -290 190 -305 210 -3 3 -23 19 -45 36 -125 92 -379 338 -438 424 -88 129
-137 202 -181 274 -27 43 -79 118 -115 165 -59 77 -164 272 -211 392 -61 154
-140 443 -164 599 -48 317 -57 588 -26 847 36 304 80 493 177 758 54 144 196
446 214 453 5 2 9 9 9 15 0 29 156 236 273 362 15 16 30 42 34 57 7 33 152
198 258 293 43 39 83 75 89 81 46 45 236 187 342 257 216 142 427 248 654 329
211 76 301 102 510 143 120 24 338 51 465 58 112 6 399 -4 535 -19z"/>
<path d="M2680 4381 c0 -5 15 -12 34 -15 19 -4 37 -13 40 -21 3 -8 13 -15 22
-15 10 0 14 5 11 15 -4 8 -2 17 3 20 6 4 10 -2 10 -11 0 -16 1 -16 14 2 14 18
12 19 -27 26 -61 10 -107 9 -107 -1z"/>
<path d="M2545 4370 c-44 -8 -44 -9 -2 -16 16 -3 35 0 43 7 8 7 27 9 47 5 23
-4 28 -3 17 4 -17 11 -45 11 -105 0z"/>
<path d="M4288 4373 c6 -2 10 -9 7 -14 -3 -5 49 -8 120 -7 69 0 127 3 129 7 2
3 -33 6 -79 6 -46 0 -81 3 -78 8 2 4 -22 7 -54 6 -32 0 -52 -3 -45 -6z m59 -9
c-3 -3 -12 -4 -19 -1 -8 3 -5 6 6 6 11 1 17 -2 13 -5z"/>
<path d="M4580 4350 c0 -5 5 -10 10 -10 6 0 10 5 10 10 0 6 -4 10 -10 10 -5 0
-10 -4 -10 -10z"/>
<path d="M4627 4354 c-15 -15 -6 -21 48 -33 53 -12 95 -8 95 9 0 11 -46 18
-62 9 -7 -4 -18 -3 -25 3 -7 5 -19 8 -27 5 -8 -3 -16 -1 -18 4 -2 6 -7 7 -11
3z"/>
<path d="M2384 4314 c-18 -14 -18 -14 6 -3 31 14 36 19 24 19 -6 0 -19 -7 -30
-16z"/>
<path d="M4776 4315 c-4 -11 2 -15 24 -15 16 0 31 -4 35 -9 5 -9 63 -41 73
-41 3 0 -20 18 -51 40 -61 44 -72 47 -81 25z"/>
<path d="M2292 4255 c-27 -23 -49 -66 -34 -64 8 0 74 89 68 89 -3 0 -18 -11
-34 -25z"/>
<path d="M4552 4135 c-9 -19 -9 -25 1 -25 6 0 13 11 13 25 2 31 0 31 -14 0z"/>
<path d="M5015 4125 c4 -11 10 -28 12 -37 3 -10 9 -18 14 -18 16 0 9 26 -13
51 -18 20 -20 21 -13 4z"/>
<path d="M3643 4063 c9 -2 23 -2 30 0 6 3 -1 5 -18 5 -16 0 -22 -2 -12 -5z"/>
<path d="M2738 4043 c6 -2 18 -2 25 0 6 3 1 5 -13 5 -14 0 -19 -2 -12 -5z"/>
<path d="M2260 4000 c1 -30 50 -153 69 -174 12 -12 21 -28 21 -34 0 -7 4 -12
8 -12 20 0 19 15 -4 51 -13 21 -24 44 -24 51 0 10 -2 10 -8 0 -5 -7 -15 11
-26 50 -19 63 -36 96 -36 68z"/>
<path d="M3533 3983 c9 -2 23 -2 30 0 6 3 -1 5 -18 5 -16 0 -22 -2 -12 -5z"/>
<path d="M3628 3983 c7 -3 16 -2 19 1 4 3 -2 6 -13 5 -11 0 -14 -3 -6 -6z"/>
<path d="M2878 3963 c6 -2 18 -2 25 0 6 3 1 5 -13 5 -14 0 -19 -2 -12 -5z"/>
<path d="M4992 3837 c-39 -41 -57 -54 -79 -61 -19 -6 -33 -26 -18 -26 18 0 85
46 104 71 27 37 23 48 -7 16z"/>
<path d="M2376 3755 c4 -8 10 -13 14 -10 4 3 10 -4 13 -15 3 -10 26 -29 53
-41 27 -12 50 -23 52 -24 1 -1 -4 -16 -11 -34 -7 -17 -16 -28 -20 -24 -4 3 -7
-1 -7 -10 0 -30 19 -27 34 5 20 42 69 66 93 46 13 -10 106 -13 472 -14 251 -1
483 3 516 8 33 5 72 10 88 11 15 1 27 5 27 10 0 4 0 12 0 18 0 6 -8 8 -17 5
-54 -15 -193 -20 -598 -19 -247 0 -475 3 -506 6 -72 7 -126 30 -157 67 -26 31
-56 41 -46 15z m617 -112 c-7 -2 -19 -2 -25 0 -7 3 -2 5 12 5 14 0 19 -2 13
-5z m74 1 c-3 -3 -12 -4 -19 -1 -8 3 -5 6 6 6 11 1 17 -2 13 -5z"/>
<path d="M4835 3750 c-3 -5 -2 -10 4 -10 5 0 13 5 16 10 3 6 2 10 -4 10 -5 0
-13 -4 -16 -10z"/>
<path d="M4765 3739 c-22 -4 -65 -8 -95 -9 -38 0 -50 -3 -40 -10 21 -13 5 -23
-18 -11 -23 12 -126 15 -119 4 3 -5 -38 -9 -91 -11 -70 -2 -107 -7 -134 -21
-21 -10 -35 -14 -32 -9 4 5 -4 8 -17 6 -12 -1 -24 -8 -26 -14 -5 -14 89 -10
149 7 24 6 104 13 178 16 192 6 194 6 202 23 5 11 7 10 7 -6 1 -11 7 -29 15
-40 14 -19 15 -19 22 0 5 12 3 21 -4 24 -7 2 -12 10 -12 18 0 8 6 11 18 7 9
-3 14 -2 9 2 -4 5 5 14 20 21 32 14 24 15 -32 3z m-58 -25 c-3 -3 -12 -4 -19
-1 -8 3 -5 6 6 6 11 1 17 -2 13 -5z"/>
<path d="M3723 3675 c0 -8 4 -12 9 -9 4 3 8 9 8 15 0 5 -4 9 -8 9 -5 0 -9 -7
-9 -15z"/>
<path d="M4793 3578 c18 -35 37 -70 42 -78 5 -8 10 -28 12 -44 6 -52 23 -106
34 -106 7 0 9 -10 5 -24 -3 -14 -2 -28 4 -31 5 -3 10 -25 10 -48 0 -40 13 -77
24 -67 2 3 0 28 -6 55 -6 28 -11 66 -13 85 -1 19 -11 60 -23 90 -12 30 -22 63
-22 72 0 19 -49 122 -61 126 -4 2 -5 10 -2 18 3 9 -2 14 -15 14 -20 0 -19 -3
11 -62z"/>
<path d="M3860 3577 c-71 -33 -121 -121 -163 -285 -14 -51 -27 -96 -31 -99 -8
-8 -36 17 -36 33 0 8 -4 14 -10 14 -5 0 -10 5 -10 11 0 5 5 7 10 4 17 -10 11
32 -6 46 -15 12 -16 8 -11 -36 8 -83 28 -179 39 -190 7 -7 9 -5 6 5 -3 8 4 19
16 25 20 10 32 40 101 265 16 53 22 86 16 88 -6 2 -11 8 -11 14 0 6 7 7 16 4
9 -4 13 -2 8 5 -4 6 12 29 36 50 34 31 50 39 82 39 21 0 37 -4 34 -9 -4 -5 4
-7 16 -3 14 3 19 2 14 -6 -4 -7 0 -15 9 -18 28 -11 75 -58 75 -75 0 -27 11
-49 21 -43 5 3 9 -1 9 -8 1 -27 44 -45 105 -43 48 1 63 -3 76 -18 9 -11 21
-18 28 -16 8 3 5 12 -9 27 -15 15 -32 22 -60 22 -52 0 -101 24 -128 63 -76
111 -175 165 -242 134z m-150 -353 c0 -8 -4 -12 -10 -9 -5 3 -10 10 -10 16 0
5 5 9 10 9 6 0 10 -7 10 -16z m-24 -80 c-4 -9 -9 -15 -11 -12 -3 3 -3 13 1 22
4 9 9 15 11 12 3 -3 3 -13 -1 -22z m-39 -26 c-3 -7 -5 -2 -5 12 0 14 2 19 5
13 2 -7 2 -19 0 -25z"/>
<path d="M2445 3529 c-4 -12 -2 -26 4 -32 8 -8 11 -2 11 21 0 37 -6 41 -15 11z"/>
<path d="M3328 3470 c-18 -16 -28 -30 -21 -30 6 0 16 7 23 15 7 8 20 15 29 15
9 0 22 5 28 11 8 8 17 8 31 0 25 -13 35 -14 28 -2 -4 5 3 7 15 4 15 -4 17 -8
8 -14 -10 -6 -6 -14 16 -31 16 -13 33 -22 38 -20 5 1 6 -1 3 -6 -7 -12 23 -54
35 -47 5 3 6 -1 3 -9 -3 -9 -2 -16 3 -16 6 0 10 12 9 28 -1 18 -6 26 -16 24
-8 -2 -12 0 -7 4 9 9 -32 54 -50 54 -7 0 -13 7 -13 15 0 21 -33 35 -84 35 -36
0 -51 -6 -78 -30z"/>
<path d="M2423 3477 c-5 -61 -15 -122 -23 -127 -16 -10 -16 -146 0 -165 9 -11
10 -19 3 -23 -11 -8 -5 -82 7 -82 4 0 8 -15 8 -34 0 -55 53 -260 64 -244 6 9
8 6 7 -12 -1 -14 1 -32 4 -40 3 -8 7 -24 10 -35 2 -11 8 -19 14 -18 6 1 11 -9
11 -22 0 -34 22 -61 34 -43 6 9 8 7 4 -7 -4 -14 6 -35 34 -69 22 -26 40 -46
40 -43 0 3 17 -11 38 -32 21 -20 36 -39 34 -43 -4 -10 20 -10 35 0 9 6 8 12
-6 24 -11 9 -21 14 -24 12 -2 -3 -10 9 -17 26 -11 28 -21 35 -43 31 -5 -1 -6
3 -2 9 3 5 -14 37 -39 69 -25 33 -46 62 -46 65 0 3 -8 15 -17 25 -33 36 -39
46 -41 73 -1 15 -13 52 -27 84 -14 31 -25 66 -25 78 0 11 -7 46 -16 76 -22 81
-29 319 -12 402 11 50 11 68 3 72 -6 2 -12 -1 -12 -7z m187 -888 c0 -5 -4 -9
-10 -9 -5 0 -10 7 -10 16 0 8 5 12 10 9 6 -3 10 -10 10 -16z m30 -39 c0 -5 -5
-10 -11 -10 -5 0 -7 5 -4 10 3 6 8 10 11 10 2 0 4 -4 4 -10z"/>
<path d="M3270 3420 c0 -5 5 -10 10 -10 6 0 10 5 10 10 0 6 -4 10 -10 10 -5 0
-10 -4 -10 -10z"/>
<path d="M3224 3401 c3 -5 -1 -14 -9 -21 -12 -10 -15 -10 -15 0 0 9 -8 10 -27
4 -16 -4 -42 -7 -60 -6 -23 1 -36 -4 -47 -20 -8 -12 -13 -25 -10 -30 3 -4 -2
-8 -10 -8 -16 0 -21 -12 -10 -22 9 -9 49 35 46 49 -2 7 4 13 13 13 8 0 15 -4
15 -8 0 -12 117 13 135 28 21 17 18 30 -6 30 -11 0 -18 -4 -15 -9z"/>
<path d="M4307 3321 c-17 -6 -16 -9 9 -34 26 -26 30 -39 33 -99 0 -16 6 -28
11 -28 12 0 14 43 3 54 -4 4 -8 21 -9 39 -1 17 -10 36 -19 43 -9 7 -14 17 -10
23 7 12 7 12 -18 2z"/>
<path d="M3004 3275 c-6 -24 0 -44 10 -34 11 11 17 59 7 59 -6 0 -13 -11 -17
-25z"/>
<path d="M2991 3204 c0 -11 3 -14 6 -6 3 7 2 16 -1 19 -3 4 -6 -2 -5 -13z"/>
<path d="M3000 3177 c0 -11 33 -67 40 -67 3 0 21 -14 40 -30 19 -16 41 -30 48
-30 7 0 28 -11 46 -25 21 -16 40 -23 56 -19 14 2 19 2 12 -2 -7 -3 14 -23 55
-50 74 -48 104 -57 61 -19 -16 13 -28 30 -28 37 0 11 -2 11 -8 0 -10 -15 -38
-7 -46 13 -3 9 0 12 10 8 7 -3 14 -3 14 1 0 10 -131 66 -154 66 -13 0 -34 10
-48 23 -13 12 -36 32 -49 42 -14 11 -30 29 -37 40 -6 11 -12 16 -12 12z"/>
<path d="M4910 3157 c0 -1 4 -16 9 -33 10 -34 5 -64 -30 -193 -16 -61 -19 -86
-11 -89 7 -2 12 -8 12 -13 0 -4 -6 -6 -14 -3 -10 4 -15 -7 -20 -40 -4 -25 -11
-48 -15 -51 -5 -2 -14 -25 -21 -50 -7 -25 -16 -45 -20 -45 -4 0 -14 -15 -21
-32 -7 -18 -26 -52 -42 -74 -16 -23 -26 -47 -22 -54 9 -14 34 17 35 43 0 9 4
17 10 17 5 0 12 11 16 25 3 14 11 25 17 25 6 0 8 3 4 6 -3 3 3 15 14 27 18 19
24 39 20 61 -1 5 2 12 6 15 29 21 86 193 76 230 -4 14 -1 26 8 32 10 6 10 9 2
9 -16 0 -17 27 -3 32 6 2 13 35 17 74 5 60 3 72 -11 77 -9 4 -16 5 -16 4z"/>
<path d="M4334 3117 c-27 -28 -44 -41 -72 -56 -13 -7 -19 -17 -16 -23 4 -7 2
-8 -5 -4 -6 4 -23 1 -36 -8 -13 -9 -31 -16 -40 -16 -8 0 -15 -4 -15 -9 0 -5
-19 -16 -42 -26 -73 -29 -188 -111 -188 -135 0 -15 6 -13 104 36 174 88 208
110 186 124 -10 6 -4 9 20 8 19 -1 36 4 38 10 2 7 9 12 15 12 16 0 87 79 87
96 0 20 -12 17 -36 -9z"/>
<path d="M4660 2430 c-37 -47 -32 -68 6 -27 14 15 22 27 19 27 -3 0 -1 9 5 20
17 32 4 23 -30 -20z"/>
<path d="M2753 2433 c-17 -6 2 -43 22 -43 8 0 15 -7 15 -16 0 -11 6 -15 20
-11 12 3 18 1 14 -5 -4 -6 1 -8 14 -4 17 6 19 3 15 -14 -3 -11 0 -20 6 -20 27
0 8 41 -34 71 -25 18 -45 36 -45 41 0 9 -8 9 -27 1z"/>
<path d="M4585 2345 c-11 -13 -21 -22 -23 -20 -7 7 -32 -22 -32 -36 0 -7 6 -4
15 7 8 10 15 16 15 12 0 -8 60 48 60 57 0 12 -16 3 -35 -20z"/>
<path d="M2749 2330 c-2 -39 -3 -38 12 -135 6 -38 15 -74 21 -80 7 -7 8 3 5
30 -3 22 -9 61 -12 88 -3 26 -11 47 -17 47 -7 0 -7 4 0 13 7 9 8 23 3 43 l-9
29 -3 -35z"/>
<path d="M2878 2329 c-4 -11 3 -24 24 -39 25 -18 34 -20 52 -11 l21 12 -23 -5
c-12 -2 -20 -1 -17 4 7 11 -22 33 -34 26 -5 -4 -11 2 -13 11 -3 16 -4 16 -10
2z"/>
<path d="M4500 2280 c0 -5 5 -10 11 -10 5 0 7 5 4 10 -3 6 -8 10 -11 10 -2 0
-4 -4 -4 -10z"/>
<path d="M2950 2261 c0 -5 8 -11 18 -13 20 -6 62 -155 62 -220 0 -42 15 -59
24 -25 3 12 2 23 -3 25 -4 1 -6 13 -4 26 3 13 0 27 -6 30 -22 14 -10 86 15 86
8 0 14 4 14 9 0 5 7 11 16 13 10 2 1 10 -23 23 -20 11 -45 28 -55 38 -19 18
-58 24 -58 8z m105 -61 c3 -5 1 -10 -4 -10 -6 0 -11 5 -11 10 0 6 2 10 4 10 3
0 8 -4 11 -10z"/>
<path d="M4428 2238 c-21 -12 -35 -25 -32 -30 3 -4 -6 -8 -19 -8 -14 0 -30 -6
-37 -14 -6 -8 -18 -12 -26 -9 -8 3 -25 -2 -37 -10 -13 -8 -43 -21 -68 -28 -24
-7 -53 -19 -64 -26 -11 -7 -29 -13 -41 -13 -12 0 -37 -6 -55 -14 -27 -11 -179
-36 -236 -39 -7 0 -13 -3 -13 -7 0 -3 -63 -6 -140 -7 -77 0 -138 3 -135 6 2 4
-4 7 -13 7 -9 0 -30 3 -45 8 -21 5 -28 3 -25 -6 13 -37 184 -45 398 -18 96 12
178 24 182 26 4 3 23 2 42 -1 33 -7 33 -7 24 -43 -20 -79 -21 -85 -10 -78 7 4
11 -7 10 -34 0 -24 6 -48 16 -59 9 -10 16 -22 16 -28 0 -14 29 -25 42 -17 6 4
14 1 18 -7 7 -10 18 -8 56 12 55 28 124 123 124 171 0 15 5 28 11 28 7 0 9 11
6 29 -4 21 0 36 14 52 20 23 21 40 3 46 -12 4 -34 -54 -34 -90 0 -14 -4 -28
-9 -32 -5 -3 -13 -20 -16 -38 -4 -17 -16 -44 -26 -58 -10 -14 -16 -28 -14 -31
2 -2 -9 -19 -25 -37 -17 -18 -30 -26 -30 -19 -1 10 -4 9 -13 -2 -16 -19 -70
-14 -90 8 -35 42 -45 114 -26 202 8 40 16 53 35 60 13 5 24 13 24 17 0 5 14 8
30 9 17 1 39 9 50 19 11 10 23 15 27 12 3 -4 15 0 25 10 10 9 18 11 18 5 0 -9
7 -9 25 0 19 9 28 9 37 0 18 -18 31 -14 25 8 -3 13 0 20 9 20 8 0 13 4 12 9
-2 5 12 21 31 35 41 31 21 33 -31 4z m-351 -164 c-3 -3 -12 -4 -19 -1 -8 3 -5
6 6 6 11 1 17 -2 13 -5z"/>
<path d="M2133 2224 c-97 -47 -140 -127 -113 -211 7 -21 33 -74 59 -118 55
-96 62 -154 22 -186 -41 -34 -90 -25 -165 29 -36 27 -80 65 -97 85 -54 64 -91
39 -53 -36 20 -38 36 -54 66 -67 l23 -11 -24 5 -23 5 21 -23 c54 -58 168 -88
247 -67 48 13 148 96 104 87 -14 -3 -19 -3 -12 0 36 17 -3 150 -70 237 -28 34
-27 52 0 25 22 -22 12 4 -13 34 -30 36 -31 48 -4 82 16 20 29 26 60 26 22 0
38 4 35 9 -8 12 13 27 49 35 68 17 68 58 0 75 -56 14 -51 15 -112 -15z m-209
-551 c4 -9 4 -18 1 -21 -3 -3 -5 0 -5 6 0 7 -7 12 -15 12 -8 0 -15 7 -15 15 0
18 26 9 34 -12z m66 -33 c8 -5 11 -10 5 -10 -5 0 -17 5 -25 10 -8 5 -10 10 -5
10 6 0 17 -5 25 -10z"/>
<path d="M5341 2210 c-9 -5 -4 -7 13 -7 29 0 32 2 13 10 -8 3 -20 2 -26 -3z"/>
<path d="M5306 2183 c-6 -14 -5 -15 5 -6 7 7 10 15 7 18 -3 3 -9 -2 -12 -12z"/>
<path d="M3100 2172 c0 -14 23 -32 42 -32 10 0 18 -5 18 -11 0 -6 9 -8 21 -4
14 5 19 4 15 -4 -5 -7 -1 -9 8 -5 9 3 16 2 16 -4 0 -9 28 -20 75 -29 11 -2 24
-8 29 -13 6 -6 22 -10 36 -10 14 0 31 -5 37 -11 6 -6 17 -8 23 -4 17 11 -3 21
-57 30 -24 4 -45 11 -49 16 -3 5 -16 9 -29 9 -13 0 -30 7 -38 15 -16 16 -119
65 -136 65 -6 0 -11 -4 -11 -8z"/>
<path d="M2350 2160 c0 -5 5 -10 11 -10 5 0 7 5 4 10 -3 6 -8 10 -11 10 -2 0
-4 -4 -4 -10z"/>
<path d="M5391 2154 c0 -11 3 -14 6 -6 3 7 2 16 -1 19 -3 4 -6 -2 -5 -13z"/>
<path d="M5229 2133 c-13 -15 -12 -15 9 -4 23 12 28 21 13 21 -5 0 -15 -7 -22
-17z"/>
<path d="M2395 2123 c2 -10 4 -25 4 -32 1 -13 3 -13 14 -2 10 11 9 14 -1 18
-6 3 -10 9 -7 13 3 5 1 11 -4 14 -5 4 -8 -2 -6 -11z"/>
<path d="M5363 2115 c0 -8 4 -12 9 -9 5 3 6 10 3 15 -9 13 -12 11 -12 -6z"/>
<path d="M2258 2113 c6 -2 18 -2 25 0 6 3 1 5 -13 5 -14 0 -19 -2 -12 -5z"/>
<path d="M5180 2100 c-8 -5 -12 -11 -9 -14 2 -3 11 -1 19 4 8 5 12 11 9 14 -2
3 -11 1 -19 -4z"/>
<path d="M2797 2094 c-12 -13 -7 -51 8 -64 8 -7 15 -20 15 -29 1 -24 21 -46
65 -71 58 -33 89 -34 119 -3 27 27 33 43 16 43 -5 0 -10 -4 -10 -10 0 -21 -54
-37 -97 -28 -44 9 -57 27 -95 131 -8 21 -17 34 -21 31z"/>
<path d="M5285 2030 c-10 -11 -14 -20 -9 -20 5 0 15 9 22 20 7 11 11 20 9 20
-2 0 -12 -9 -22 -20z"/>
<path d="M5235 1990 c-3 -5 -2 -10 4 -10 5 0 13 5 16 10 3 6 2 10 -4 10 -5 0
-13 -4 -16 -10z"/>
<path d="M4952 1931 c-12 -7 -33 -91 -26 -103 3 -4 7 -18 9 -30 8 -42 55 -51
79 -16 9 12 19 19 22 15 4 -3 23 6 43 22 45 35 109 48 118 23 4 -9 11 -20 17
-24 8 -6 8 -10 -1 -16 -8 -5 -4 -16 13 -37 13 -17 24 -24 24 -17 0 7 5 10 10
7 6 -3 10 -18 10 -33 0 -16 3 -22 8 -15 5 8 16 -5 31 -37 22 -47 41 -64 41
-39 0 6 15 -4 34 -23 19 -18 32 -35 30 -37 -2 -3 -18 8 -34 24 -17 16 -30 24
-30 17 0 -6 9 -16 20 -22 11 -6 19 -14 17 -18 -3 -4 9 -17 24 -30 16 -13 29
-18 29 -12 0 10 4 10 15 0 8 -7 12 -16 9 -21 -3 -5 10 -15 28 -24 23 -10 26
-13 8 -9 -24 6 -24 6 -5 -10 26 -20 59 -20 79 0 20 19 20 20 -3 67 -14 31 -19
35 -25 22 -5 -14 -12 -9 -37 29 -17 25 -40 51 -50 57 -10 5 -19 17 -19 26 0
13 2 14 17 2 15 -13 15 -12 2 8 -9 16 -16 19 -21 10 -6 -9 -14 -5 -29 13 -11
14 -42 49 -67 79 -67 77 -74 89 -67 114 4 14 3 18 -3 9 -7 -10 -14 -11 -35 -1
-15 7 -27 16 -27 21 0 9 -44 11 -87 2 -17 -3 -43 -17 -58 -30 -34 -29 -69 -33
-61 -6 9 29 -26 59 -52 43z m28 -152 c0 -14 -17 -10 -23 5 -4 10 -1 13 9 9 7
-3 14 -9 14 -14z"/>
<path d="M2185 1900 c3 -5 8 -10 11 -10 2 0 4 5 4 10 0 6 -5 10 -11 10 -5 0
-7 -4 -4 -10z"/>
<path d="M5290 1870 c0 -5 5 -10 10 -10 6 0 10 5 10 10 0 6 -4 10 -10 10 -5 0
-10 -4 -10 -10z"/>
<path d="M5316 1835 c4 -8 10 -15 15 -15 4 0 6 7 3 15 -4 8 -10 15 -15 15 -4
0 -6 -7 -3 -15z"/>
<path d="M2242 1790 c0 -14 2 -19 5 -12 2 6 2 18 0 25 -3 6 -5 1 -5 -13z"/>
<path d="M2684 1782 c-17 -9 -69 -36 -115 -60 -98 -51 -143 -91 -207 -187 -45
-67 -47 -73 -47 -140 0 -60 4 -76 29 -115 64 -100 144 -148 216 -130 19 4 27
8 18 9 -11 1 -18 9 -18 21 0 14 -7 20 -22 21 -19 1 -17 3 7 9 28 7 29 8 4 9
-30 1 -88 42 -106 74 -15 27 -17 123 -3 132 6 3 10 0 11 -7 0 -7 5 2 10 20 5
18 17 42 27 53 37 45 71 80 79 81 23 2 63 21 63 29 0 5 3 8 8 7 18 -3 112 16
112 23 0 5 8 9 18 9 14 0 15 -2 2 -10 -11 -7 -7 -10 18 -10 30 0 32 2 18 15
-20 20 -89 19 -129 -2 -18 -9 -36 -17 -42 -17 -5 -1 -23 -9 -38 -20 -46 -31
-45 -8 2 34 32 29 56 41 95 47 40 7 50 12 48 26 -2 10 3 17 12 17 10 0 13 6
10 15 -5 11 1 15 22 15 24 0 22 3 -22 25 -27 14 -49 25 -49 24 0 0 -14 -8 -31
-17z"/>
<path d="M5380 1766 c0 -2 8 -10 18 -17 15 -13 16 -12 3 4 -13 16 -21 21 -21
13z"/>
<path d="M2825 1740 c3 -5 11 -10 16 -10 6 0 7 5 4 10 -3 6 -11 10 -16 10 -6
0 -7 -4 -4 -10z"/>
<path d="M4706 1731 c-15 -6 -16 -10 -7 -16 8 -4 16 -3 20 4 5 7 15 9 26 5 13
-5 16 -4 11 4 -8 13 -22 14 -50 3z"/>
<path d="M2760 1688 c0 -4 4 -8 9 -8 6 0 12 4 15 8 3 5 -1 9 -9 9 -8 0 -15 -4
-15 -9z"/>
<path d="M2890 1690 c0 -5 7 -10 15 -10 8 0 15 -5 15 -12 0 -6 3 -8 6 -5 8 8
-14 37 -27 37 -5 0 -9 -4 -9 -10z"/>
<path d="M4605 1670 c-35 -36 -24 -40 17 -5 16 14 34 23 39 19 5 -3 9 0 9 5 0
21 -37 10 -65 -19z"/>
<path d="M4710 1680 c-17 -13 -20 -20 -10 -20 22 0 43 16 39 28 -3 7 -14 3
-29 -8z"/>
<path d="M4632 1644 c-10 -12 -10 -14 2 -14 17 0 30 16 19 23 -5 3 -14 -1 -21
-9z"/>
<path d="M4788 1633 c6 -2 18 -2 25 0 6 3 1 5 -13 5 -14 0 -19 -2 -12 -5z"/>
<path d="M3853 1613 c-28 -4 -33 -8 -32 -31 1 -15 5 -40 9 -57 l8 -30 2 30 c2
26 3 24 11 -15 5 -25 10 -56 11 -70 1 -14 6 -30 10 -37 5 -6 9 -33 8 -60 -1
-75 9 -146 40 -273 5 -19 14 -69 20 -110 19 -125 15 -116 61 -119 47 -2 59 8
58 54 0 17 -3 24 -6 18 -2 -7 -8 -13 -13 -13 -9 0 -30 102 -36 180 -4 51 -2
58 18 68 23 11 23 11 -4 11 -25 1 -28 5 -29 39 -1 34 -3 54 -13 122 -2 14 -4
39 -5 55 -1 21 -4 26 -10 17 -6 -10 -8 -5 -9 15 -2 66 -15 120 -43 175 -7 14
-3 19 24 27 l32 9 -40 -1 c-22 0 -55 -2 -72 -4z m-3 -38 c0 -8 -4 -15 -10 -15
-5 0 -10 7 -10 15 0 8 5 15 10 15 6 0 10 -7 10 -15z"/>
<path d="M4185 1610 c3 -5 17 -10 31 -10 13 0 24 -4 24 -8 0 -5 11 -14 25 -20
33 -15 32 -8 -2 16 -33 22 -88 38 -78 22z"/>
<path d="M4994 1601 c21 -23 26 -26 26 -11 0 5 -10 15 -22 21 -23 12 -23 12
-4 -10z"/>
<path d="M5520 1601 c0 -5 5 -13 10 -16 6 -3 10 -2 10 4 0 5 -4 13 -10 16 -5
3 -10 2 -10 -4z"/>
<path d="M4544 1573 c-29 -72 -49 -209 -34 -233 7 -10 10 6 10 55 0 79 9 123
20 105 4 -7 4 -29 -1 -49 -10 -46 -4 -148 11 -166 6 -7 8 -20 4 -29 -3 -9 -2
-16 2 -16 13 0 35 -55 30 -71 -6 -17 40 -76 50 -66 4 4 -3 18 -16 32 -13 14
-21 27 -18 30 8 9 78 -81 70 -90 -4 -5 1 -6 10 -2 9 3 18 0 21 -7 7 -17 75
-36 130 -36 61 0 150 40 173 77 10 15 23 31 29 35 6 4 1 8 -10 8 -11 0 -29 7
-39 15 -16 12 -22 12 -28 2 -5 -8 -8 -7 -8 6 0 18 -10 22 -25 9 -6 -5 -29 -16
-52 -25 -40 -16 -45 -15 -86 2 -111 48 -164 146 -169 316 -2 57 -6 107 -10
110 -7 7 -42 -24 -51 -46 -4 -8 -4 3 -1 24 7 44 3 47 -12 10z"/>
<path d="M4910 1571 c0 -10 19 -25 25 -20 1 2 -3 10 -11 17 -8 7 -14 8 -14 3z"/>
<path d="M3977 1563 c-3 -5 9 -9 26 -10 26 -1 28 0 12 7 -26 11 -33 12 -38 3z"/>
<path d="M4058 1553 c7 -3 16 -2 19 1 4 3 -2 6 -13 5 -11 0 -14 -3 -6 -6z"/>
<path d="M4096 1551 c15 -16 61 -23 68 -12 4 6 1 9 -7 5 -8 -3 -18 -1 -22 5
-3 6 -16 11 -28 11 -13 0 -17 -4 -11 -9z"/>
<path d="M3176 1498 c-39 -110 -100 -288 -112 -332 -8 -28 -18 -52 -23 -55 -5
-3 -16 -31 -24 -61 -9 -30 -19 -65 -23 -77 -4 -15 -2 -23 6 -23 7 0 10 7 6 15
-3 8 0 15 6 15 6 0 8 -11 5 -30 -4 -17 -2 -30 3 -30 6 0 10 7 10 16 0 15 2 15
25 0 15 -10 53 -19 88 -21 34 -2 103 -8 152 -14 123 -13 194 -14 175 -1 -13 9
-13 11 0 20 29 19 -10 35 -113 47 -56 6 -129 12 -163 12 -87 1 -111 27 -77 85
6 10 8 28 5 39 -4 15 -2 18 8 12 10 -6 12 -1 8 19 -3 14 -2 26 3 26 4 0 10 18
14 40 4 22 11 40 15 40 5 0 12 16 16 35 3 19 10 35 15 35 5 0 9 9 9 20 0 28
23 114 33 121 4 3 9 19 11 35 2 16 4 32 5 37 2 14 20 7 24 -10 4 -14 5 -12 6
5 1 20 -4 22 -48 22 -49 0 -49 0 -65 -42z"/>
<path d="M5060 1531 c0 -6 4 -13 10 -16 6 -3 7 1 4 9 -7 18 -14 21 -14 7z"/>
<path d="M2981 1514 c0 -11 3 -14 6 -6 3 7 2 16 -1 19 -3 4 -6 -2 -5 -13z"/>
<path d="M4038 1520 c-9 -6 -28 -11 -42 -12 -17 -2 -27 -10 -31 -26 -3 -14 -4
-27 0 -30 3 -3 5 0 5 7 0 20 23 38 58 46 18 3 32 11 32 16 0 11 -1 11 -22 -1z"/>
<path d="M4075 1510 c-4 -6 7 -10 27 -10 25 0 29 3 18 10 -19 13 -37 13 -45 0z"/>
<path d="M4345 1500 c3 -5 8 -10 11 -10 2 0 4 5 4 10 0 6 -5 10 -11 10 -5 0
-7 -4 -4 -10z"/>
<path d="M4250 1480 c20 -13 43 -13 35 0 -3 6 -16 10 -28 10 -18 0 -19 -2 -7
-10z"/>
<path d="M2971 1473 c-1 -6 -4 -20 -7 -30 -5 -17 -5 -17 6 0 6 10 9 23 6 30
-3 9 -5 9 -5 0z"/>
<path d="M4206 1470 c12 -5 25 -13 29 -19 3 -6 14 -11 23 -10 14 0 14 2 2 6
-8 4 -21 12 -28 20 -7 7 -21 13 -30 12 -13 0 -12 -2 4 -9z"/>
<path d="M4371 1464 c0 -11 3 -14 6 -6 3 7 2 16 -1 19 -3 4 -6 -2 -5 -13z"/>
<path d="M4306 1461 c-4 -7 -5 -15 -2 -18 9 -9 19 4 14 18 -4 11 -6 11 -12 0z"/>
<path d="M5021 1424 c0 -11 3 -14 6 -6 3 7 2 16 -1 19 -3 4 -6 -2 -5 -13z"/>
<path d="M2444 1384 c3 -9 6 -27 6 -40 0 -13 3 -24 8 -24 4 0 6 18 4 40 -2 22
-9 40 -14 40 -6 0 -7 -7 -4 -16z"/>
<path d="M2832 1379 c-19 -30 -8 -34 12 -4 9 14 13 25 9 25 -5 0 -14 -9 -21
-21z"/>
<path d="M2922 1379 c-19 -30 -8 -34 12 -4 9 14 13 25 9 25 -5 0 -14 -9 -21
-21z"/>
<path d="M4401 1364 c0 -11 3 -14 6 -6 3 7 2 16 -1 19 -3 4 -6 -2 -5 -13z"/>
<path d="M3231 1354 c0 -11 3 -14 6 -6 3 7 2 16 -1 19 -3 4 -6 -2 -5 -13z"/>
<path d="M4296 1341 c-4 -7 -5 -15 -2 -18 9 -9 19 4 14 18 -4 11 -6 11 -12 0z"/>
<path d="M2790 1325 c-11 -13 -10 -14 4 -9 9 3 16 10 16 15 0 13 -6 11 -20 -6z"/>
<path d="M2895 1326 c-23 -25 -26 -40 -4 -19 12 12 21 24 18 27 -2 2 -9 -1
-14 -8z"/>
<path d="M5021 1313 c0 -13 -5 -23 -11 -23 -5 0 -10 -8 -10 -17 0 -14 3 -13
16 5 8 12 13 30 11 40 -3 12 -5 11 -6 -5z"/>
<path d="M4514 1295 c8 -39 39 -105 49 -105 11 0 8 13 -8 34 -8 11 -15 29 -15
40 0 12 -8 30 -17 41 -15 19 -15 19 -9 -10z"/>
<path d="M4350 1274 c0 -8 5 -12 10 -9 6 3 10 10 10 16 0 5 -4 9 -10 9 -5 0
-10 -7 -10 -16z"/>
<path d="M2835 1270 c-3 -5 -1 -10 4 -10 6 0 11 5 11 10 0 6 -2 10 -4 10 -3 0
-8 -4 -11 -10z"/>
<path d="M3211 1264 c0 -11 3 -14 6 -6 3 7 2 16 -1 19 -3 4 -6 -2 -5 -13z"/>
<path d="M2708 1257 c-15 -12 -15 -14 5 -27 19 -12 20 -11 10 2 -10 11 -10 17
-1 26 16 16 7 15 -14 -1z"/>
<path d="M4002 1200 c0 -14 2 -19 5 -12 2 6 2 18 0 25 -3 6 -5 1 -5 -13z"/>
<path d="M4195 1210 c-8 -13 5 -13 25 0 13 8 13 10 -2 10 -9 0 -20 -4 -23 -10z"/>
<path d="M4275 1200 c-3 -5 -2 -10 4 -10 5 0 13 5 16 10 3 6 2 10 -4 10 -5 0
-13 -4 -16 -10z"/>
<path d="M2678 1183 c7 -3 16 -2 19 1 4 3 -2 6 -13 5 -11 0 -14 -3 -6 -6z"/>
<path d="M3171 1148 c0 -9 -4 -25 -7 -35 -5 -14 -4 -15 5 -7 7 7 11 22 8 35
-2 13 -5 16 -6 7z"/>
<path d="M4185 1140 c-3 -6 1 -7 9 -4 18 7 21 14 7 14 -6 0 -13 -4 -16 -10z"/>
<path d="M4110 1110 c-13 -9 -13 -10 0 -9 8 0 24 4 35 9 l20 9 -20 0 c-11 0
-27 -4 -35 -9z"/>
<path d="M3184 1031 c5 -8 56 -3 56 5 0 2 -14 4 -31 4 -16 0 -28 -4 -25 -9z"/>
<path d="M4031 1005 c0 -16 4 -39 9 -50 7 -17 9 -16 9 10 0 17 -4 39 -9 50 -7
17 -9 16 -9 -10z"/>
<path d="M3368 1013 c7 -3 16 -2 19 1 4 3 -2 6 -13 5 -11 0 -14 -3 -6 -6z"/>
<path d="M3448 1003 c7 -3 16 -2 19 1 4 3 -2 6 -13 5 -11 0 -14 -3 -6 -6z"/>
<path d="M3530 944 c0 -8 5 -12 10 -9 6 4 8 11 5 16 -9 14 -15 11 -15 -7z"/>
<path d="M3495 910 c-3 -5 -2 -10 4 -10 5 0 13 5 16 10 3 6 2 10 -4 10 -5 0
-13 -4 -16 -10z"/>
</g>
</svg>
